<svg xmlns="http://www.w3.org/2000/svg" width="200" height="200" class="icon" viewBox="0 0 1024 1024">
  <defs/>
  <defs/>
  <path fill="#80CBC4" d="M733.653 666.667L512 597.333l-221.653 69.334a170.667 170.667 0 00-119.68 162.773v87.893h682.666V829.44a170.667 170.667 0 00-119.68-162.773z"/>
  <path fill="#FB8C00" d="M597.333 426.667a64 64 0 10128 0 64 64 0 10-128 0zM298.667 426.667a64 64 0 10128 0 64 64 0 10-128 0z"/>
  <path fill="#FFB74D" d="M341.333 213.333v256a170.667 170.667 0 00341.334 0v-256z"/>
  <path fill="#795548" d="M512 106.667A213.333 213.333 0 00298.667 320v106.667l42.666-21.334v-64L576 234.667l106.667 106.666v64l42.666 21.334V320A213.333 213.333 0 00512 106.667z"/>
  <path fill="#FFF" d="M554.6669999999999 426.667a42.667 42.667 0 1085.333 0 42.667 42.667 0 10-85.333 0z"/>
  <path fill="#2196F3" d="M576 426.667a21.333 21.333 0 1042.667 0 21.333 21.333 0 10-42.667 0z"/>
  <path fill="#FFF" d="M384 426.667a42.667 42.667 0 1085.333 0 42.667 42.667 0 10-85.333 0z"/>
  <path fill="#2196F3" d="M405.33299999999997 426.667a21.333 21.333 0 1042.667 0 21.333 21.333 0 10-42.667 0z"/>
  <path fill="#795548" d="M640 490.667v42.666L554.667 512v21.333L512 554.667l-42.667-21.334V512L384 533.333v-42.666l-42.667-85.334V570.24a174.507 174.507 0 00159.36 176.427A170.667 170.667 0 00682.667 576V405.333z"/>
</svg>
