<svg class="icon" viewBox="0 0 1210 1024" xmlns="http://www.w3.org/2000/svg" width="236.328" height="200">
  <defs/>
  <path d="M660.864 567.552s-59.339-181.738 52.124-316.47 336.715-198.958 336.715-198.958a532.414 532.414 0 01-91.45 331.363c-109.834 155.21-297.39 184.065-297.39 184.065z" fill="#73D36E"/>
  <path d="M698.095 454.925s-133.569 110.998-297.854 57.012-320.89-221.762-320.89-221.762 193.372-55.615 374.644-8.843 244.1 173.593 244.1 173.593z" fill="#73D36E"/>
  <path d="M1179.781 727.648c33.043 135.663-55.615 254.107-192.441 287.615S717.177 984.082 684.832 848.42s55.614-254.107 192.441-287.616 269.232 29.786 302.508 166.845z" fill="#7950EA"/>
  <path d="M973.378 882.858l11.17 9.773a19.547 19.547 0 0015.125 3.49l19.314-2.792c15.125-2.094 23.27 9.076 15.125 18.849l-11.402 12.566a10.704 10.704 0 00-2.56 12.333l6.283 12.1c4.887 9.54-8.61 21.176-23.27 19.547l-18.383-2.095a26.062 26.062 0 00-16.754 4.189l-15.359 10.239c-12.1 7.911-29.32 3.956-29.32-6.749V960.58a10.704 10.704 0 00-7.911-9.773l-15.824-5.818c-12.333-4.654-9.54-18.615 4.887-23.27l18.383-6.515a19.547 19.547 0 0011.868-10.006l5.584-13.73a23.27 23.27 0 0133.044-8.61z" fill="#AD9CFF"/>
  <path d="M949.37 940.049a12.333 20.245 76.32 1039.34-9.576 12.333 20.245 76.32 10-39.34 9.576z" fill="#5737CC"/>
  <path d="M667.146 311.35c100.759-96.104 247.359-78.652 344.394 22.805s107.74 247.591 7.214 344.86-247.359 78.884-343.928-22.805-109.369-247.592-7.68-344.86z" fill="#7950EA"/>
  <path d="M909.85 417.461l2.56-13.496a17.918 17.918 0 00-4.188-13.73l-11.17-14.194c-8.61-11.17-3.955-23.27 8.145-20.943l15.358 3.258a10.006 10.006 0 0010.937-3.724l6.748-10.704c5.352-8.377 20.943-3.025 26.295 9.308l6.981 15.591a23.27 23.27 0 0010.937 11.635l15.358 7.679c12.1 6.05 16.754 21.641 8.144 26.76l-11.17 6.283a10.006 10.006 0 00-4.188 10.937l2.56 15.358c2.094 12.1-10.471 16.289-21.176 7.214l-13.729-11.635a17.918 17.918 0 00-13.729-4.887l-13.73 1.63a21.176 21.176 0 01-20.942-22.34z" fill="#AD9CFF"/>
  <path d="M945.773 404.463a18.616 11.402 46.29 1016.484-15.758 18.616 11.402 46.29 10-16.484 15.758z" fill="#5737CC"/>
  <path d="M819.797 801.646c-28.622 160.33-178.247 245.497-339.973 216.875S205.938 858.657 234.327 698.095s178.48-245.264 340.205-216.875S848.42 639.688 819.797 801.646z" fill="#7950EA"/>
  <path d="M524.735 868.43l7.446 15.824a23.27 23.27 0 0014.66 10.937l21.874 6.05c17.22 4.887 21.408 20.943 7.446 27.226l-17.917 7.912a12.566 12.566 0 00-8.378 11.867v16.056c0 12.566-19.08 18.616-33.74 10.006l-18.617-10.704a30.25 30.25 0 00-19.78-3.49l-21.175 3.723c-16.521 3.025-33.276-9.54-28.156-20.943l6.515-14.66a12.566 12.566 0 00-3.723-14.194l-12.333-13.497c-11.17-10.704-1.629-23.27 16.29-23.27l23.269 1.629a23.27 23.27 0 0017.452-5.12l12.333-12.1a26.76 26.76 0 0136.534 6.749z" fill="#AD9CFF"/>
  <path d="M493.001 936.548a23.503 14.427 10 105.01-28.416 23.503 14.427 10 10-5.01 28.416z" fill="#5737CC"/>
  <path d="M325.778 592.45a143.575 143.575 0 00-38.628 65.389 139.62 139.62 0 00-4.654 80.746c4.188-3.258 6.515-43.05 19.547-77.256a165.216 165.216 0 0140.955-63.527c16.754-18.383-.466-20.244-17.22-5.352zm416.995-288.779a143.575 143.575 0 00-57.709 49.333 139.62 139.62 0 00-30.483 74.928c4.886-1.861 20.012-38.627 43.514-66.784a165.216 165.216 0 0159.338-46.54c21.874-12.1 6.283-19.78-14.66-10.937zm151.022 324.615a143.575 143.575 0 0152.822 54.451 139.62 139.62 0 0123.27 77.489c-4.887-2.327-16.289-40.49-36.999-69.81a165.216 165.216 0 00-54.684-52.357c-20.71-13.496-4.421-19.314 15.59-9.773z" fill="#FFF"/>
  <path d="M1140.222 702.517a235.258 235.258 0 00-100.293-144.04 263.415 263.415 0 00-71.67-255.969c-3.026-3.258-6.284-6.05-9.541-9.075a546.376 546.376 0 0050.96-265.044 11.635 11.635 0 00-4.42-7.912 11.402 11.402 0 00-8.843-2.327A596.173 596.173 0 00730.44 148.23a11.635 11.635 0 1015.126 17.685A590.589 590.589 0 01987.34 43.747a541.722 541.722 0 01-46.54 234.328 272.955 272.955 0 00-150.556-63.76 232.698 232.698 0 00-182.436 65.854 249.918 249.918 0 00-37.93 46.54 437.24 437.24 0 00-168.706-84.005c-182.435-46.54-372.317 6.516-380.927 8.843a11.635 11.635 0 00-5.12 19.081 1143.015 1143.015 0 00205.939 167.31 11.635 11.635 0 0016.056-3.955 11.635 11.635 0 00-4.422-15.126A1112.764 1112.764 0 0146.54 270.396c53.055-12.333 205.705-40.955 349.047-3.956a413.505 413.505 0 01162.89 81.677 228.743 228.743 0 00-24.667 102.387l-8.377-1.861A325.778 325.778 0 00297.39 487.27a271.326 271.326 0 00-126.123 187.555c-28.156 159.63 81.445 302.507 255.968 333.456a365.104 365.104 0 0063.527 5.585 313.212 313.212 0 00164.75-44.678 271.792 271.792 0 0032.578-23.27 252.71 252.71 0 00177.782 69.81 312.049 312.049 0 0073.998-9.076 281.332 281.332 0 00166.845-110.066 234.327 234.327 0 0033.508-194.07zm-53.52 178.247a258.295 258.295 0 01-153.116 100.758A243.868 243.868 0 01704.844 928.7 274.351 274.351 0 00780.47 781.4a11.635 11.635 0 10-23.27-3.955 248.29 248.29 0 01-114.72 171.266 302.508 302.508 0 01-211.989 36.068c-162.889-28.855-262.251-157.77-235.956-306.464a245.264 245.264 0 01114.72-171.964 303.904 303.904 0 01211.989-35.37 292.037 292.037 0 01211.057 141.946 11.635 11.635 0 1020.477-11.17 308.093 308.093 0 00-195.699-146.6 208.032 208.032 0 0167.25-157.537 211.29 211.29 0 01164.518-59.57 257.597 257.597 0 01162.889 81.91 241.308 241.308 0 0167.482 227.113 282.496 282.496 0 00-196.63-19.78 11.635 11.635 0 005.585 23.27 259.226 259.226 0 01182.203 18.616 209.429 209.429 0 01106.808 139.62 211.523 211.523 0 01-31.181 171.964z" fill="#604D42"/>
  <path d="M772.093 702.051a11.635 11.635 0 00-10.936 12.333v14.66a11.635 11.635 0 1023.27 0v-16.056a11.635 11.635 0 00-12.334-10.937zm-2.56-14.427a11.635 11.635 0 009.076-13.73 262.484 262.484 0 00-8.843-32.112 11.635 11.635 0 00-22.106 7.447 242.006 242.006 0 018.145 29.32 11.635 11.635 0 0011.402 9.308z" fill="#604D42"/>
</svg>
