<svg xmlns="http://www.w3.org/2000/svg" width="200" height="200" class="icon" viewBox="0 0 1024 1024">
  <defs/>
  <defs/>
  <path fill="#E53935" d="M512 896L106.667 384H512v512z"/>
  <path fill="#D32F2F" d="M512 896V384h405.333L512 896z"/>
  <path fill="#F44336" d="M512 896l257.92-512H254.08L512 896z"/>
  <path fill="#F77268" d="M512 896l94.507-512H419.2L512 896zm405.333-512H512V128h174.933l230.4 256z"/>
  <path fill="#F44336" d="M769.92 384L512 128h174.933l82.987 256z"/>
  <path fill="#F77268" d="M512 384H106.667l230.186-256H512v256z"/>
  <path fill="#F44336" d="M254.08 384l82.773-256H512L254.08 384z"/>
  <path fill="#E53935" d="M769.92 384H254.08l156.587-256h203.52L769.92 384z"/>
  <path fill="#F77268" d="M254.08 384L512 258.987 410.667 128 254.08 384zm515.84 0L512 258.987 614.187 128 769.92 384z"/>
  <path fill="#E53935" d="M769.92 384H254.08L512 258.987 769.92 384z"/>
  <path fill="#F44336" d="M604.16 384H419.84L512 258.987 604.16 384z"/>
</svg>
