<svg class="icon" viewBox="0 0 1024 1024" xmlns="http://www.w3.org/2000/svg" width="200" height="200">
  <defs/>
  <path d="M12.488 504.008c0 496.89 389.095 499.512 446.938 499.512h105.148S514.622 569.744 12.488 504.008z" fill="#2E7D32"/>
  <path d="M459.426 556.581H564.6v446.939H459.426z" fill="#388E3C"/>
  <path d="M774.893 293.713c0 134.07-136.691 215.54-210.294 215.54-73.628 0-52.599-81.47-52.599-215.54 0-134.119 131.447-241.889 131.447-241.889S774.893 159.62 774.893 293.688z" fill="#C62828"/>
  <path d="M249.107 293.713c0 134.07 136.691 215.54 210.294 215.54 73.628 0 52.599-81.47 52.599-215.54 0-134.119-131.447-241.889-131.447-241.889S249.107 159.62 249.107 293.688z" fill="#C62828"/>
  <path d="M512 582.88c-57.844-42.058-49.951-118.309 63.088-231.348C690.775 235.845 722.32 57.069 722.32 57.069s131.446 89.413 131.446 236.62c0 155.098-149.853 289.217-341.766 289.217z" fill="#E53935"/>
  <path d="M512 582.88c57.844-42.058 49.951-118.309-63.088-231.348C333.225 235.845 301.68 57.069 301.68 57.069s-131.446 89.413-131.446 236.62c0 155.098 149.853 289.217 341.766 289.217z" fill="#E53935"/>
  <path d="M669.746 293.713c0 160.344-70.98 289.168-157.746 289.168-86.765 0-157.746-128.824-157.746-289.193C354.254 133.37 512 4.496 512 4.496S669.746 133.32 669.746 293.713z" fill="#F44336"/>
  <path d="M459.426 1003.52h105.148c57.843 0 446.938-2.622 446.938-499.512-502.134 65.736-552.086 499.512-552.086 499.512z" fill="#4CAF50"/>
</svg>
