<svg xmlns="http://www.w3.org/2000/svg" width="200" height="200" class="icon" viewBox="0 0 1024 1024">
  <defs/>
  <defs/>
  <path fill="#FFF" d="M720.528 189.008c-22.662 43.506-48.72 91.517-79.258 146.018 22.604 38.736 45.539 77.636 67.79 115.37 7.34 12.452 14.657 24.86 21.94 37.223h177.593c20.49-32.873 37.69-60.755 53.248-86.309-18.488-75.112-55.333-143.077-105.509-198.836a2855.156 2855.156 0 00-135.804-13.466zM314.965 573.64a135053.5 135053.5 0 01-21.955-37.259H115.412c-20.524 32.929-37.727 60.81-53.25 86.311 18.485 75.11 55.327 143.072 105.499 198.832a2852.584 2852.584 0 00135.811 13.468c22.662-43.506 48.72-91.517 79.25-146.006-22.596-38.729-45.511-77.617-67.757-115.346zm-199.553-86.021h177.591c7.287-12.376 14.614-24.798 21.96-37.259 22.243-37.725 45.17-76.61 67.767-115.334-30.525-54.482-56.588-102.498-79.258-146.018a2855.063 2855.063 0 00-135.809 13.468C117.492 258.236 80.65 326.198 62.162 401.31c15.555 25.55 32.758 53.431 53.25 86.309zm562.983 372.039c-22.606-43.469-48.691-91.558-79.362-146.308a6164.431 6164.431 0 01-174.063 0c-30.66 54.73-56.747 102.827-79.363 146.308 21.431 36.096 41.131 70.058 59.86 103.192a462.84 462.84 0 00106.52 12.38c36.66 0 72.33-4.3 106.55-12.385a5561.32 5561.32 0 0159.858-103.187zM908.588 536.38H730.99c-7.29 12.376-14.583 24.756-21.933 37.222-22.253 37.742-45.176 76.64-67.782 115.383 30.54 54.506 56.598 102.517 79.25 146.008a2858.396 2858.396 0 00135.805-13.468c50.176-55.76 87.018-123.721 105.506-198.834-15.548-25.544-32.751-53.426-53.248-86.311zM405.465 61.15c-18.73 33.136-38.43 67.099-59.86 103.192 22.628 43.506 48.723 91.617 79.387 146.352 57.824-.82 116.19-.82 174.014 0 30.671-54.753 56.769-102.861 79.387-146.352-21.431-36.096-41.131-70.056-59.858-103.187a462.828 462.828 0 00-106.55-12.386 462.84 462.84 0 00-106.52 12.38z"/>
  <path fill="#6ECCAE" d="M424.916 359.46c-22.677 38.866-45.648 77.847-67.947 115.666-7.28 12.35-14.507 24.613-21.728 36.874a58547.11 58547.11 0 0021.728 36.874c22.299 37.82 45.27 76.8 67.947 115.665 57.873.827 116.297.827 174.165 0 22.687-38.877 45.666-77.87 67.97-115.702 7.273-12.337 14.49-24.588 21.704-36.837-7.215-12.249-14.431-24.5-21.704-36.837-22.306-37.832-45.285-76.825-67.97-115.702a6117.076 6117.076 0 00-174.165 0zm-88.28-276.187a463.49 463.49 0 00-109.186 63.444 2873.159 2873.159 0 0175.84-6.602 5951.615 5951.615 0 0033.345-56.842zm637.13 391.814A12189.852 12189.852 0 01950.85 512a12501.526 12501.526 0 0122.916 36.913 466.834 466.834 0 001.47-36.906 466.042 466.042 0 00-1.47-36.92zM687.37 940.72a463.433 463.433 0 00109.173-63.437 2869.858 2869.858 0 01-75.832 6.6 6035.846 6035.846 0 00-33.341 56.837zm33.34-800.605a2873.16 2873.16 0 0175.828 6.602A463.48 463.48 0 00687.37 83.283a6032.798 6032.798 0 0033.34 56.832zm-670.478 408.8A12564.748 12564.748 0 0173.15 512a12501.526 12501.526 0 01-22.915-36.913 467.188 467.188 0 00-1.473 36.918c0 12.424.507 24.73 1.47 36.91zM303.29 883.888a2876.109 2876.109 0 01-75.842-6.605 463.445 463.445 0 00109.19 63.446 6004.853 6004.853 0 00-33.348-56.841z"/>
  <path d="M1011.912 401.31a25.234 25.234 0 00-.49-2.245c-20.08-88.84-63.325-168.984-123.029-233.752a24.471 24.471 0 00-4.403-4.73C819.283 92.128 735.946 41.47 642.175 16.8a23.957 23.957 0 00-2.906-.773C598.559 5.576 555.913.01 511.988.01c-43.866 0-86.457 5.554-127.118 15.979a24.625 24.625 0 00-3.062.812C288.04 41.472 204.705 92.13 140 160.588a24.432 24.432 0 00-4.4 4.725C75.898 230.08 32.653 310.228 12.576 399.073a24.422 24.422 0 00-.483 2.208A511.893 511.893 0 000 512.005c0 38.012 4.198 75.054 12.095 110.726.127.739.286 1.473.48 2.197 20.078 88.846 63.323 168.996 123.03 233.767a24.488 24.488 0 004.39 4.717c64.798 68.557 148.276 119.267 242.21 143.9.613.19 1.23.36 1.856.501 40.904 10.56 83.77 16.182 127.927 16.182 44.168 0 87.047-5.622 127.96-16.189a24.259 24.259 0 001.846-.5c93.933-24.634 177.408-75.34 242.206-143.891a24.488 24.488 0 004.39-4.718c59.71-64.77 102.957-144.92 123.037-233.767.195-.731.356-1.468.483-2.214a511.764 511.764 0 0012.092-110.711 511.927 511.927 0 00-12.09-110.695zM687.37 940.72a5923.182 5923.182 0 0133.34-56.835 2870.76 2870.76 0 0075.833-6.6A463.511 463.511 0 01687.37 940.72zm33.158-105.726c-22.655-43.49-48.71-91.502-79.25-146.008 22.608-38.741 45.529-77.64 67.781-115.383 7.35-12.466 14.643-24.846 21.933-37.222H908.59c20.497 32.885 37.698 60.767 53.25 86.311-18.487 75.113-55.332 143.075-105.505 198.834a2858.813 2858.813 0 01-135.807 13.468zm-417.239 48.894a5900.585 5900.585 0 0133.346 56.841 463.494 463.494 0 01-109.19-63.446 2877.194 2877.194 0 0075.844 6.605zm.186-48.896a2852.27 2852.27 0 01-135.812-13.468c-50.171-55.757-87.013-123.72-105.499-198.832 15.526-25.5 32.727-53.382 53.25-86.311h177.599c7.297 12.388 14.6 24.783 21.955 37.259 22.245 37.73 45.16 76.615 67.76 115.344-30.533 54.491-56.591 102.502-79.253 146.008zm33.16-751.719a5951.615 5951.615 0 01-33.346 56.842 2874.06 2874.06 0 00-75.84 6.602 463.49 463.49 0 01109.186-63.444zm-33.163 105.735c22.67 43.52 48.733 91.536 79.258 146.018-22.596 38.724-45.524 77.607-67.767 115.334a67903.61 67903.61 0 00-21.96 37.259h-177.59c-20.493-32.878-37.696-60.76-53.251-86.309 18.488-75.112 55.33-143.074 105.501-198.834a2855.378 2855.378 0 01135.81-13.468zM688.76 512c-7.214 12.249-14.43 24.503-21.703 36.837-22.307 37.83-45.286 76.825-67.97 115.702-57.87.827-116.292.827-174.165 0-22.677-38.863-45.648-77.846-67.947-115.665-7.28-12.35-14.507-24.613-21.729-36.874a58542.288 58542.288 0 0121.729-36.874c22.299-37.82 45.27-76.8 67.947-115.665 57.87-.827 116.295-.827 174.165 0 22.687 38.877 45.666 77.87 67.97 115.702L688.759 512zM73.15 512a12564.748 12564.748 0 00-22.918 36.915 468.126 468.126 0 01-1.47-36.91c0-12.427.507-24.735 1.473-36.918A12501.489 12501.489 0 0073.15 512zm877.702 0a11893.34 11893.34 0 0022.916-36.913 467.139 467.139 0 011.473 36.918c0 12.422-.508 24.727-1.47 36.905A13432.403 13432.403 0 00950.851 512zm-42.262-24.381H730.997c-7.28-12.364-14.6-24.773-21.94-37.222-22.248-37.735-45.186-76.635-67.79-115.371 30.538-54.499 56.596-102.512 79.258-146.018a2854.741 2854.741 0 01135.802 13.466c50.176 55.76 87.02 123.724 105.509 198.836-15.558 25.554-32.758 53.436-53.246 86.309zM720.71 140.115a5980.357 5980.357 0 01-33.34-56.832 463.48 463.48 0 01109.168 63.434 2861.027 2861.027 0 00-75.827-6.602zm-42.315 24.227c-22.618 43.491-48.715 91.6-79.387 146.352a6160.979 6160.979 0 00-174.014 0c-30.664-54.735-56.759-102.846-79.387-146.352 21.431-36.093 41.131-70.056 59.86-103.192A462.848 462.848 0 01511.99 48.77c36.66 0 72.329 4.3 106.55 12.385 18.724 33.131 38.424 67.091 59.855 103.187zM405.465 962.85c-18.73-33.134-38.43-67.096-59.86-103.192 22.616-43.484 48.703-91.578 79.362-146.308 57.825.82 116.244.82 174.063 0 30.672 54.75 56.757 102.841 79.363 146.308-21.417 36.071-41.116 70.032-59.858 103.187a462.828 462.828 0 01-106.55 12.386 462.84 462.84 0 01-106.52-12.38z"/>
</svg>
