<svg xmlns="http://www.w3.org/2000/svg" width="200" height="200" class="icon" viewBox="0 0 1024 1024">
  <defs/>
  <defs/>
  <path fill="#FF9800" d="M896 448h-7.253a86.4 86.4 0 01-79.787-55.04l-2.56-6.4a86.613 86.613 0 0117.28-95.787l5.12-5.12a21.333 21.333 0 000-30.08L768 195.2a21.333 21.333 0 00-30.08 0l-5.12 5.12a86.613 86.613 0 01-95.787 17.28l-6.4-2.56A86.4 86.4 0 01576 135.253V128a21.333 21.333 0 00-21.333-21.333h-85.334A21.333 21.333 0 00448 128v7.253a86.4 86.4 0 01-55.04 79.787l-6.4 2.56a86.613 86.613 0 01-95.787-17.28l-5.12-5.12a21.333 21.333 0 00-30.08 0L195.2 256a21.333 21.333 0 000 30.08l5.12 5.12a86.613 86.613 0 0117.28 95.787l-2.56 6.4A86.4 86.4 0 01135.253 448H128a21.333 21.333 0 00-21.333 21.333v85.334A21.333 21.333 0 00128 576h7.253a86.4 86.4 0 0179.787 55.04l2.56 6.4a86.613 86.613 0 01-17.28 95.787l-5.12 5.12a21.333 21.333 0 000 30.08L256 828.8a21.333 21.333 0 0030.08 0l5.12-5.12a86.613 86.613 0 0195.787-17.28l6.4 2.56A86.4 86.4 0 01448 888.747V896a21.333 21.333 0 0021.333 21.333h85.334A21.333 21.333 0 00576 896v-7.253a86.4 86.4 0 0155.04-79.787l6.4-2.56a86.613 86.613 0 0195.787 17.28l5.12 5.12a21.333 21.333 0 0030.08 0L828.8 768a21.333 21.333 0 000-30.08l-5.12-5.12a86.613 86.613 0 01-17.28-95.787l2.56-6.4A86.4 86.4 0 01888.747 576H896a21.333 21.333 0 0021.333-21.333v-85.334A21.333 21.333 0 00896 448zM512 661.333A149.333 149.333 0 11661.333 512 149.333 149.333 0 01512 661.333z"/>
  <path fill="#EF6C00" d="M512 277.333A234.667 234.667 0 10746.667 512 234.667 234.667 0 00512 277.333zm0 341.334A106.667 106.667 0 11618.667 512 106.667 106.667 0 01512 618.667z"/>
</svg>
