<svg xmlns="http://www.w3.org/2000/svg" width="200" height="200" class="icon" viewBox="0 0 1024 1024">
  <defs/>
  <defs/>
  <path fill="#90A4AE" d="M682.667 170.667h128v42.666h-128z"/>
  <path fill="#CFD8DC" d="M682.667 213.333h128V416h-128z"/>
  <path fill="#CFD8DC" d="M874.667 896H149.333V436.693L512 168.96l362.667 267.733V896z"/>
  <path fill="#B71C1C" d="M512 128L123.947 414.507 149.76 457.6 512 192l362.24 265.6 25.813-43.093L512 128z"/>
  <path fill="#BF360C" d="M362.667 512h298.666v384H362.667z"/>
  <path fill="#D84315" d="M405.333 554.667h213.334V896H405.333z"/>
  <path fill="#FF8A65" d="M554.667 704a21.333 21.333 0 1042.666 0 21.333 21.333 0 10-42.666 0z"/>
  <path fill="#ECF0F1" d="M448 320h128v128H448z"/>
  <path fill="#2196F3" d="M469.333 341.333h85.334v85.334h-85.334z"/>
</svg>
