<svg class="icon" viewBox="0 0 1024 1024" xmlns="http://www.w3.org/2000/svg" width="200" height="200">
  <defs/>
  <path d="M66.78300000000002 464.095a445.217 445.217 0 10890.434 0 445.217 445.217 0 10-890.434 0z" fill="#FFF59D"/>
  <path d="M801.391 464.095c0-171.41-146.921-307.2-322.782-287.166-133.566 15.583-240.418 122.435-253.774 256-11.13 102.4 31.165 193.67 102.4 251.548 31.165 26.713 51.2 64.557 51.2 106.852v6.679h267.13v-2.226c0-40.07 17.809-80.14 48.974-106.853 64.557-53.426 106.852-133.565 106.852-224.834z" fill="#FBC02D"/>
  <path d="M658.922 424.025l-66.783-44.522c-6.678-4.452-17.809-4.452-24.487 0L512 415.121l-53.426-35.618c-6.678-4.452-17.809-4.452-24.487 0l-66.783 44.522c-4.452 4.452-8.904 8.904-8.904 15.583 0 6.678 0 13.356 4.452 17.808l84.591 104.626v235.966h44.522v-244.87c0-4.452-2.226-8.904-4.452-13.356l-73.46-91.27 33.39-22.26 53.427 35.617c6.678 4.452 17.808 4.452 24.487 0l53.426-35.618 33.39 22.261-73.46 91.27c-2.226 4.452-4.452 8.904-4.452 13.356v244.87h44.522V562.042l84.59-104.626c4.453-4.452 6.68-11.13 4.453-17.808-2.226-6.679-4.452-13.357-8.904-15.583z" fill="#FFF59D"/>
  <path d="M445.217 953.834a66.783 66.783 0 10133.566 0 66.783 66.783 0 10-133.566 0z" fill="#5C6BC0"/>
  <path d="M556.522 976.095h-89.044c-48.974 0-89.043-40.07-89.043-89.044V775.747h267.13V887.05c0 48.974-40.07 89.044-89.043 89.044z" fill="#9FA8DA"/>
  <path d="M645.565 887.051L387.34 922.67c6.678 15.582 20.035 31.165 35.618 40.07l209.252-28.94c8.904-13.357 13.356-28.94 13.356-46.748zm-267.13-51.2v44.522l267.13-37.844v-44.521z" fill="#5C6BC0"/>
</svg>
