<svg class="icon" viewBox="0 0 1024 1024" xmlns="http://www.w3.org/2000/svg" width="200" height="200">
  <defs/>
  <path d="M481.11 587.446l282.506 92.996s13.312 94.59-9.56 302.332H411.048c46.406-159.466 70.062-395.328 70.062-395.328z" fill="#E09B8C"/>
  <path d="M58.874 429.324L0 423.73c12.876-59.404 54.748-110.746 54.748-110.746l-36.936-17.782c38.842-52.436 95.808-95.808 95.808-95.808l-42.436-19.156s43.248-63.592 112.214-95.808l-6.844-32.844S600.244-9.1 862.86 163.27c151.682 99.498-238.554 334.05-266.178 444.016-36.876 147.028-255.226 262.618-255.226 262.618-32.126-45.126-30.968-84.808-30.968-84.808l-102.84 51.746c-21.594-49.558-24.188-84.558-24.188-84.558l-91.31 40c-7.404-56.5 17.344-123.434 17.344-123.434l-61.592 10.938c4.25-65.906 26.032-120.434 26.032-120.434L0 563.508c12.876-80.466 58.874-134.184 58.874-134.184z" fill="#EC5564"/>
  <path d="M763.616 680.442S612.81 618.754 614.56 631.38c13.062 92.25 64.874 174.214 151.496 197.992 4.184-101.466-2.44-148.93-2.44-148.93z" opacity=".1"/>
  <path d="M842.676 227.268l49.438 10.25 47.748 73.124-4.188 51.686c94.372 62.748 88.246 168.15 88.246 168.15l-66.996 12.188 10.936 59.964-11.812 22.656 17.25 17.376-26.626 51.746s34.938 63.532 24.25 75.844c-60.186 69.718-327.616 4.688-350.988-160.59-21.438-151.804-31.248-159.054-31.248-159.054l253.99-223.34z" fill="#E09B8C"/>
  <path d="M828.866 142.584C953.048 194.832 929.61 266.298 929.61 266.298 794.052 294.296 611.186 570.32 611.186 570.32s-103.67 88.996-94.64-16.282c17.592-204.712 250.882-437.33 312.32-411.454z" fill="#E8563F"/>
  <path d="M542.076 626.786c-13.25 0-24.656-4.782-32.968-13.844-11.716-12.75-16.216-32.622-13.81-60.746 7.686-89.404 56.514-195.494 133.886-291.116 32.312-39.904 66.81-74.498 99.808-100.06 35.748-27.716 65.748-41.748 89.058-41.748 6.938 0 13.376 1.218 19.126 3.626 140.68 59.216 113.87 146.372 112.684 150.058l-3.876 11.748-12.062 2.5c-50.748 10.468-119.184 64.154-197.932 155.214-61.124 70.684-106.622 139.028-107.058 139.684l-1.626 2.5-2.252 1.906c-7.808 6.746-48.618 40.278-82.978 40.278zm-1.622-42.81c.216.058.748.152 1.624.152 13.046 0 38.42-16.214 53.046-28.184 9.124-13.5 51.558-75.436 108.306-141.09 79.186-91.652 148.622-147.212 206.556-165.432-1-17.938-13.25-55.154-89.372-87.184-.064-.034-.75-.314-2.564-.314-22.248 0-85.308 39.094-155.682 125.996-72.184 89.154-117.558 186.806-124.574 267.93-1.812 21.06 1.97 27.216 2.66 28.126z" fill="#FB6D51"/>
  <path d="M559.81 666.41c-44.702 0-81.044-36.344-81.044-81.028 0-44.656 36.344-81.032 81.044-81.032 44.686 0 80.998 36.376 80.998 81.032 0 44.684-36.312 81.028-80.998 81.028z" fill="#F5BA45"/>
  <path d="M559.81 483.042c-56.544 0-102.358 45.81-102.358 102.342 0 56.528 45.812 102.372 102.358 102.372 56.498 0 102.372-45.844 102.372-102.372 0-56.532-45.874-102.342-102.372-102.342zm0 162.056c-32.92 0-59.702-26.782-59.702-59.714 0-32.906 26.782-59.688 59.702-59.688 32.936 0 59.686 26.782 59.686 59.688 0 32.932-26.75 59.714-59.686 59.714z" fill="#FECD57"/>
  <path d="M538.482 585.382c0 11.782 9.516 21.344 21.328 21.344 11.75 0 21.312-9.562 21.312-21.344s-9.562-21.316-21.312-21.316a21.296 21.296 0 00-21.328 21.316z" fill="#424953"/>
  <path d="M876.426 385.294c0 11.78 9.56 21.31 21.31 21.31 11.812 0 21.376-9.532 21.376-21.31 0-11.782-9.562-21.344-21.376-21.344-11.75.002-21.31 9.564-21.31 21.344z" fill="#434A54"/>
  <path d="M855.988 294.922c-16.75-55.624-102.684-89.528-134.308-97.902l10.876-41.25c5.56 1.47 137.244 37.25 164.306 126.81l-40.874 12.342zm-64.186 60.03c-27.188-70.154-119.806-87.496-120.746-87.652l7.5-41.998c4.75.842 117.308 21.966 153.056 114.244l-39.81 15.406zm-66.748 64.184c-31.874-52.28-109.684-78.78-110.496-79.03l13.498-40.466c3.814 1.282 93.56 31.876 133.436 97.308l-36.438 22.188zm-55.934 74.998c-32-52.53-113.058-82.498-113.934-82.81l14.624-40.092c3.876 1.438 96.06 35.53 135.748 100.714l-36.438 22.188z" fill="#FB6D51"/>
  <path d="M951.86 353.67c-10.124-5.218-46.374-18.718-119.746 5.688-11.186 3.718-17.188 15.812-13.498 27a21.374 21.374 0 0020.25 14.592c2.248 0 4.5-.376 6.748-1.094 61.186-20.404 86.686-8.282 86.934-8.156-.5-.25-.686-.404-.686-.404l.062-.064c3.25 2 7.062 3.19 11.186 3.19 11.75 0 21.312-9.562 21.312-21.344 0-8.658-5.126-16.064-12.562-19.408z" fill="#646C77"/>
</svg>
