<svg id="Layer_1" data-name="Layer 1" xmlns="http://www.w3.org/2000/svg" viewBox="0 0 162.16 162.16">
    <defs>
        <style>.cls-1{fill:none;stroke:rgb(61, 177, 102);;;stroke-miterlimit:3.86;stroke-width:1.42px;}.cls-2,.cls-6{fill:rgb(61, 177, 102);}.cls-3,.cls-4{fill:#013f64;}.cls-3,.cls-6,.cls-7{fill-rule:evenodd;}.cls-5,.cls-7{fill:rgb(61, 177, 102);}</style>
    </defs>
    <title>logo1</title>
    <polygon class="cls-5" points="70.63 50.65 80.85 40.43 91.07 50.65 87.94 53.78 80.85 46.69 73.75 53.78 70.63 50.65" />
    <path class="cls-6" d="M54.14,113.23,84.27,83.1l30,30-3.13,3.13L84.27,89.36l-27,27ZM34,93,70.82,56.19,84.27,69.64,97.73,56.19,134.5,93l-3.13,3.13L97.73,62.44,87.4,72.77,121,106.41l-3.13,3.13L84.27,75.9,50.54,109.63l-3.13-3.13L81.14,72.77,70.82,62.44,37.08,96.17Z" transform="translate(-3.33 -2.2)" />
    <polygon class="cls-7" points="37.35 97.58 80.94 53.99 124.44 97.48 121.31 100.61 80.94 60.25 40.48 100.71 37.35 97.58" />
</svg>