<svg xmlns="http://www.w3.org/2000/svg" width="200" height="200" class="icon" viewBox="0 0 1024 1024">
  <defs/>
  <defs/>
  <path fill="#FFB74D" d="M234.66700000000003 181.333a74.667 74.667 0 10149.333 0 74.667 74.667 0 10-149.333 0z"/>
  <path fill="#FFCC80" d="M170.667 224A74.667 74.667 0 10320 224a74.667 74.667 0 10-149.333 0z"/>
  <path fill="#FFCC80" d="M277.33299999999997 224a74.667 74.667 0 10149.334 0 74.667 74.667 0 10-149.334 0z"/>
  <path fill="#FFB74D" d="M405.33299999999997 181.333a74.667 74.667 0 10149.334 0 74.667 74.667 0 10-149.334 0z"/>
  <path fill="#FFCC80" d="M405.33299999999997 245.333a74.667 74.667 0 10149.334 0 74.667 74.667 0 10-149.334 0z"/>
  <path fill="#FFB74D" d="M533.333 181.333a74.667 74.667 0 10149.334 0 74.667 74.667 0 10-149.334 0z"/>
  <path fill="#FFB74D" d="M682.6669999999999 202.667a74.667 74.667 0 10149.333 0 74.667 74.667 0 10-149.333 0z"/>
  <path fill="#FFCC80" d="M725.333 224a74.667 74.667 0 10149.334 0 74.667 74.667 0 10-149.334 0z"/>
  <path fill="#FFCC80" d="M618.6669999999999 224A74.667 74.667 0 10768 224a74.667 74.667 0 10-149.333 0z"/>
  <path fill="#FFCC80" d="M490.667 202.667a74.667 74.667 0 10149.333 0 74.667 74.667 0 10-149.333 0zM341.33299999999997 160a74.667 74.667 0 10149.334 0 74.667 74.667 0 10-149.334 0z"/>
  <path fill="#F44336" d="M149.333 277.333h725.334l-82.774 621.44a21.333 21.333 0 01-21.333 18.56H253.44a21.333 21.333 0 01-21.333-18.56z"/>
  <path fill="#FFCDD2" d="M426.667 298.667h-64L384 896h64l-21.333-597.333zm234.666 0h-64L576 896h64l21.333-597.333zm170.667 0h-42.667l-64 597.333H768l64-597.333zm-640 0h42.667l64 597.333H256l-64-597.333z"/>
  <path fill="#FFB74D" d="M255.99999999999997 234.667a42.667 42.667 0 1085.333 0 42.667 42.667 0 10-85.333 0zM384 213.333a42.667 42.667 0 1085.333 0 42.667 42.667 0 10-85.333 0zM533.333 256a42.667 42.667 0 1085.334 0 42.667 42.667 0 10-85.334 0zM725.333 234.667a42.667 42.667 0 1085.334 0 42.667 42.667 0 10-85.334 0z"/>
  <path fill="#FFCDD2" d="M160 234.667h704q32 0 32 32t-32 32H160q-32 0-32-32t32-32zM341.333 597.333a170.667 128 0 10341.334 0 170.667 128 0 10-341.334 0z"/>
  <path fill="#F44336" d="M512 490.667c80.853 0 149.333 48.853 149.333 106.666S592.853 704 512 704s-149.333-48.853-149.333-106.667S431.147 490.667 512 490.667M512 448c-106.667 0-192 66.773-192 149.333s85.333 149.334 192 149.334 192-66.774 192-149.334S618.667 448 512 448z"/>
</svg>
